<svg xmlns="http://www.w3.org/2000/svg" viewBox="0 0 1024 294.39"><defs><style>.f447d356-d313-47bf-a3a4-dff44260427a{isolation:isolate;}.\37 ec96b90-ec57-460d-9980-d735128ece32{fill:#30305e;}.\38 f7a3d2e-12c2-4a20-8894-cdbd29bc9528{fill:none;}.\33 ec1c08d-82c7-47b5-b1a9-6294f8b15a4e,.dfeda72d-5ba3-4596-baf5-4af3af96405e{fill:#ffdb3c;}.\34 b1594ec-88c5-48a1-b13c-7ea537cad01f,.\37 3cf6186-9f0d-4289-bfdc-00bf5eb9f94e{fill:#d85eb4;}.\34 139cb19-8248-4011-ab5c-9bdd43e71303,.\37 3cf6186-9f0d-4289-bfdc-00bf5eb9f94e,.b0b95dd6-aaa1-471f-b03b-748d988594a9,.dfeda72d-5ba3-4596-baf5-4af3af96405e{mix-blend-mode:multiply;}.\34 139cb19-8248-4011-ab5c-9bdd43e71303,.f00b193e-09e8-4cf9-b8ed-d6c3145a37db{fill:#f15b50;}.\32 ca4d4ac-4e69-469b-b0be-f132a14c792c{fill:#c8283c;}.\36 4dd2d9a-c010-41b8-abde-53ee452206dd,.b0b95dd6-aaa1-471f-b03b-748d988594a9{fill:#ff9e21;}.c78fe159-b248-496d-8c8b-0d7193252697{fill:#fb8827;}.\38 4216278-206c-48df-8f74-edf5c6a0c8cf{fill:#ec3b1f;}.\36 509d2ce-bf36-407a-b5bb-39584856d934{fill:#61b6fd;}.c6ca2a08-c031-4060-971c-eaaa3d9f132a{fill:#659a42;}.f58048bf-6b74-4944-afab-71346318c5d8{fill:#5049af;}</style></defs><title>logo</title><g class="f447d356-d313-47bf-a3a4-dff44260427a"><g id="281b1134-bd44-46d7-9ca4-d4a011436f0e" data-name="Calque 1"><path class="7ec96b90-ec57-460d-9980-d735128ece32" d="M319.07,187.23a36.39,36.39,0,0,0,8.83-.89,16.22,16.22,0,0,0,5.59-2.43,8.14,8.14,0,0,0,2.91-3.64,13,13,0,0,0,.81-4.7q0-5.5-5.18-9.15t-17.81-7.85q-5.51-1.94-11-4.45a40.51,40.51,0,0,1-9.88-6.31,30.16,30.16,0,0,1-7.12-9.23,28.89,28.89,0,0,1-2.75-13.2,32.68,32.68,0,0,1,2.91-14,29.92,29.92,0,0,1,8.26-10.61,37.79,37.79,0,0,1,13-6.72,58.18,58.18,0,0,1,17.16-2.35,68.63,68.63,0,0,1,33.19,7.77l-7.29,19.92a69.25,69.25,0,0,0-10.44-4.29,45.28,45.28,0,0,0-13.84-1.86q-9.07,0-13,2.51a8.47,8.47,0,0,0-4,7.69,8.88,8.88,0,0,0,1.46,5.18,14.15,14.15,0,0,0,4.13,3.81,36.09,36.09,0,0,0,6.15,3.08q3.48,1.38,7.69,2.83,8.74,3.24,15.22,6.4a40.7,40.7,0,0,1,10.77,7.37,26.73,26.73,0,0,1,6.4,9.88,39.73,39.73,0,0,1,2.1,13.76q0,15.71-11,24.37t-33.2,8.66a92.07,92.07,0,0,1-13.44-.89A87,87,0,0,1,295,205.69a60.68,60.68,0,0,1-7.93-2.75,59.69,59.69,0,0,1-5.59-2.75l7.13-20.08A63.37,63.37,0,0,0,301,185,64.26,64.26,0,0,0,319.07,187.23Z"/><path class="7ec96b90-ec57-460d-9980-d735128ece32" d="M381.08,124.24A135,135,0,0,1,397,120.92a130.49,130.49,0,0,1,20.4-1.54q10.85,0,18.05,2.83a27.16,27.16,0,0,1,11.42,8,31.29,31.29,0,0,1,6,12.31,65.53,65.53,0,0,1,1.78,15.87V206.5H430.47V161.32q0-11.66-3.08-16.52t-11.5-4.86q-2.59,0-5.51.24t-5.18.57V206.5H381.08Z"/><path class="7ec96b90-ec57-460d-9980-d735128ece32" d="M507.06,119.06q10.69,0,17.81,2.43a27.7,27.7,0,0,1,11.42,7,25.63,25.63,0,0,1,6.07,11,54.37,54.37,0,0,1,1.78,14.41v50.2q-5.18,1.13-14.41,2.67a138.62,138.62,0,0,1-22.35,1.54,70.83,70.83,0,0,1-15-1.46A32.48,32.48,0,0,1,480.83,202a21.83,21.83,0,0,1-7.45-8.66,29.89,29.89,0,0,1-2.59-13.12,24.85,24.85,0,0,1,3-12.63,23,23,0,0,1,8-8.26,36.28,36.28,0,0,1,11.5-4.45,64.59,64.59,0,0,1,13.44-1.38,76.92,76.92,0,0,1,8.34.4A37.6,37.6,0,0,1,521,155v-2.27a13.36,13.36,0,0,0-3.72-9.88q-3.73-3.72-13-3.72a82.65,82.65,0,0,0-12.14.89,52.28,52.28,0,0,0-10.36,2.51l-3.08-19.43q2.1-.65,5.26-1.38t6.88-1.3q3.72-.57,7.85-1T507.06,119.06Zm1.94,70.6q3.56,0,6.8-.16A46.5,46.5,0,0,0,521,189v-18.3q-1.46-.32-4.37-.65a49,49,0,0,0-5.34-.32,48,48,0,0,0-6.4.41,16.75,16.75,0,0,0-5.26,1.54,9,9,0,0,0-3.56,3.08,8.56,8.56,0,0,0-1.3,4.86q0,5.67,3.81,7.85T509,189.66Z"/><path class="7ec96b90-ec57-460d-9980-d735128ece32" d="M645.18,163.91a62.4,62.4,0,0,1-2.43,18,40.44,40.44,0,0,1-7.12,13.93A32.18,32.18,0,0,1,624,204.88a37.64,37.64,0,0,1-16,3.24,43.18,43.18,0,0,1-9.39-1,45,45,0,0,1-8.42-2.75v32.06H566V124.24q3.24-1,7.45-1.86t8.83-1.54q4.62-.65,9.39-1.05t9.15-.4a52.32,52.32,0,0,1,18.78,3.16,38.63,38.63,0,0,1,13.93,8.91,38.21,38.21,0,0,1,8.66,14A53.84,53.84,0,0,1,645.18,163.91Zm-24.61.65q0-11.17-5-17.89t-14.9-6.72q-3.24,0-6,.24t-4.53.57v43.56a21,21,0,0,0,5.91,2.43,28.49,28.49,0,0,0,7.37,1Q620.57,187.71,620.57,164.56Z"/><path class="7ec96b90-ec57-460d-9980-d735128ece32" d="M688.25,189.17q6.64,0,9.39-1.3t2.75-5q0-2.92-3.56-5.1A67.92,67.92,0,0,0,686,172.82a110.47,110.47,0,0,1-10.28-4.37,30.19,30.19,0,0,1-7.85-5.42,21.92,21.92,0,0,1-5-7.53A27.84,27.84,0,0,1,661.05,145q0-12,8.91-18.95t24.45-7a78.55,78.55,0,0,1,14.9,1.38,69.68,69.68,0,0,1,11.33,3l-4.21,18.78a88.82,88.82,0,0,0-9.15-2.59,49.84,49.84,0,0,0-11.09-1.13q-11.34,0-11.33,6.32a6.53,6.53,0,0,0,.49,2.59,5.52,5.52,0,0,0,1.94,2.19,27.14,27.14,0,0,0,4,2.28q2.51,1.23,6.4,2.69a99.13,99.13,0,0,1,13.12,5.8,31.4,31.4,0,0,1,8.18,6.17,19.08,19.08,0,0,1,4.21,7.35,32.63,32.63,0,0,1,1.21,9.37q0,12.6-9.47,19.07t-26.8,6.46a75.6,75.6,0,0,1-29.31-5.18l4-19.59a79,79,0,0,0,12.63,3.81A61.38,61.38,0,0,0,688.25,189.17Z"/><path class="7ec96b90-ec57-460d-9980-d735128ece32" d="M742.34,206.5V84.73l24.13-3.89v40.81a50.09,50.09,0,0,1,6.23-1.54,39.13,39.13,0,0,1,7.37-.73q10.36,0,17.25,2.83a26.8,26.8,0,0,1,11,8,31,31,0,0,1,5.83,12.31,68.45,68.45,0,0,1,1.7,15.87V206.5H791.72V161.32q0-11.66-3-16.52t-11.09-4.86a31,31,0,0,0-6.07.57q-2.83.57-5.1,1.21V206.5Z"/><path class="7ec96b90-ec57-460d-9980-d735128ece32" d="M864.1,96.71q0,6.64-4.29,10.44a15.36,15.36,0,0,1-20.24,0q-4.29-3.8-4.29-10.44t4.29-10.44a15.36,15.36,0,0,1,20.24,0Q864.1,90.07,864.1,96.71ZM861.84,206.5H837.71V121.32h24.13Z"/><path class="7ec96b90-ec57-460d-9980-d735128ece32" d="M921.42,80.84a52.92,52.92,0,0,1,12.47,1.38,60.72,60.72,0,0,1,8.74,2.67l-4.7,19.27a31.66,31.66,0,0,0-7-2.19,37.64,37.64,0,0,0-7-.73,19.66,19.66,0,0,0-7.37,1.21,11.36,11.36,0,0,0-4.7,3.32,12.82,12.82,0,0,0-2.43,5,26,26,0,0,0-.73,6.32v4.21h29.79V141.4H908.63V206.5H884.5V116.79q0-16.52,9.31-26.23T921.42,80.84Z"/><path class="7ec96b90-ec57-460d-9980-d735128ece32" d="M952,100.11l24.13-3.89v25.1h29V141.4h-29v30q0,7.61,2.67,12.14T989.59,188a46,46,0,0,0,8-.73,41.16,41.16,0,0,0,7.53-2l3.4,18.78a68.36,68.36,0,0,1-9.72,3.08,56.63,56.63,0,0,1-13.12,1.3q-9.88,0-16.35-2.67A25.64,25.64,0,0,1,959,198.32a27.7,27.7,0,0,1-5.42-11.58A68.24,68.24,0,0,1,952,171.68Z"/><polygon class="8f7a3d2e-12c2-4a20-8894-cdbd29bc9528" points="108.23 159.96 136.03 170.72 155.48 147.93 139.53 122.99 110.48 130.31 108.23 159.96"/><path class="3ec1c08d-82c7-47b5-b1a9-6294f8b15a4e" d="M90,112.81l.45-5.86a2.86,2.86,0,0,1,3.07-2.64l16,1.21a2.86,2.86,0,0,1,2.64,3.07l-1.65,21.72L139.53,123,127.8,104.64a2.86,2.86,0,0,1,.87-4l13.49-8.62a2.86,2.86,0,0,1,4,.87l3.33,5.21.74-.47a1.67,1.67,0,0,1-1.23-1.2L132.07,29.4a2.86,2.86,0,0,0-3.47-2.08L74.71,40.89a2.86,2.86,0,0,0-2.08,3.47l16.88,67.07A1.67,1.67,0,0,1,89,113l.65,0A.3.3,0,0,0,90,112.81Z"/><polygon class="73cf6186-9f0d-4289-bfdc-00bf5eb9f94e" points="142.56 196.54 142.78 196.63 142.61 196.48 142.56 196.54"/><path class="4b1594ec-88c5-48a1-b13c-7ea537cad01f" d="M134.56,201.51l-12.18-10.39a2.86,2.86,0,0,1-.32-4l14-16.36L108.23,160,106.56,182a2.86,2.86,0,0,1-3.07,2.64l-16-1.21a2.86,2.86,0,0,1-2.64-3.07l.44-5.86a.3.3,0,0,0-.28-.33l-.29,0,.44.17L59.64,240.42a2.86,2.86,0,0,0,1.64,3.7l51.82,20.05a2.86,2.86,0,0,0,3.7-1.64L142.15,197l-3.55,4.16A2.86,2.86,0,0,1,134.56,201.51Z"/><polygon class="4139cb19-8248-4011-ab5c-9bdd43e71303" points="142.15 197.03 142.56 196.54 142.36 196.47 142.15 197.03"/><polygon class="4139cb19-8248-4011-ab5c-9bdd43e71303" points="182.46 149.79 182.47 149.77 182.46 149.78 182.46 149.79"/><path class="f00b193e-09e8-4cf9-b8ed-d6c3145a37db" d="M184.92,158.95l-13.49,8.62a2.86,2.86,0,0,1-4-.87l-12-18.77L136,170.72,156,178.43a2.86,2.86,0,0,1,1.64,3.7l-5.78,14.93a2.86,2.86,0,0,1-3.7,1.64l-5.35-2.07,53.72,45.84a2.86,2.86,0,0,0,4-.32l36.07-42.26a2.86,2.86,0,0,0-.32-4l-53.64-45.78,3.14,4.91A2.86,2.86,0,0,1,184.92,158.95Z"/><path class="73cf6186-9f0d-4289-bfdc-00bf5eb9f94e" d="M151.83,197.06l5.78-14.93a2.86,2.86,0,0,0-1.64-3.7L136,170.72l-14,16.36a2.86,2.86,0,0,0,.32,4l12.18,10.39a2.86,2.86,0,0,0,4-.32l3.55-4.16.22-.56.2.08.05-.06.17.15,5.35,2.07A2.86,2.86,0,0,0,151.83,197.06Z"/><path class="2ca4d4ac-4e69-469b-b0be-f132a14c792c" d="M151.83,197.06l5.78-14.93a2.86,2.86,0,0,0-1.64-3.7L136,170.72l-14,16.36a2.86,2.86,0,0,0,.32,4l12.18,10.39a2.86,2.86,0,0,0,4-.32l3.55-4.16.22-.56.2.08.05-.06.17.15,5.35,2.07A2.86,2.86,0,0,0,151.83,197.06Z"/><path class="64dd2d9a-c010-41b8-abde-53ee452206dd" d="M243,107.67,213.09,60.85a2.86,2.86,0,0,0-4-.87L150.18,97.67a1.65,1.65,0,0,0,.82,0l4.36-1.1a2.86,2.86,0,0,1,3.47,2.08l3.91,15.52a2.86,2.86,0,0,1-2.08,3.47L139.53,123l15.94,24.94,14.4-16.88a2.86,2.86,0,0,1,4-.32l12.18,10.39a2.86,2.86,0,0,1,.32,4l-3.93,4.61,59.67-38.15A2.86,2.86,0,0,0,243,107.67Z"/><polygon class="b0b95dd6-aaa1-471f-b03b-748d988594a9" points="182.65 150.08 182.46 149.79 182.4 149.87 182.65 150.08"/><path class="dfeda72d-5ba3-4596-baf5-4af3af96405e" d="M146.11,92.93a2.86,2.86,0,0,0-4-.87l-13.49,8.62a2.86,2.86,0,0,0-.87,4L139.53,123l21.13-5.32a2.86,2.86,0,0,0,2.08-3.47l-3.91-15.52a2.86,2.86,0,0,0-3.47-2.08L151,97.69a1.65,1.65,0,0,1-.82,0l-.74.47Z"/><path class="c78fe159-b248-496d-8c8b-0d7193252697" d="M146.11,92.93a2.86,2.86,0,0,0-4-.87l-13.49,8.62a2.86,2.86,0,0,0-.87,4L139.53,123l21.13-5.32a2.86,2.86,0,0,0,2.08-3.47l-3.91-15.52a2.86,2.86,0,0,0-3.47-2.08L151,97.69a1.65,1.65,0,0,1-.82,0l-.74.47Z"/><path class="4139cb19-8248-4011-ab5c-9bdd43e71303" d="M186.09,141.12l-12.18-10.39a2.86,2.86,0,0,0-4,.32l-14.4,16.88,12,18.77a2.86,2.86,0,0,0,4,.87l13.49-8.62a2.86,2.86,0,0,0,.87-4l-3.14-4.91-.25-.21.07-.08h0l3.93-4.61A2.86,2.86,0,0,0,186.09,141.12Z"/><path class="84216278-206c-48df-8f74-edf5c6a0c8cf" d="M186.09,141.12l-12.18-10.39a2.86,2.86,0,0,0-4,.32l-14.4,16.88,12,18.77a2.86,2.86,0,0,0,4,.87l13.49-8.62a2.86,2.86,0,0,0,.87-4l-3.14-4.91-.25-.21.07-.08h0l3.93-4.61A2.86,2.86,0,0,0,186.09,141.12Z"/><path class="6509d2ce-bf36-407a-b5bb-39584856d934" d="M77.8,168.42l5.78-14.93a2.86,2.86,0,0,1,3.7-1.64l21,8.11,2.25-29.66-21.24,5.35a2.86,2.86,0,0,1-3.47-2.08l-3.91-15.52a2.86,2.86,0,0,1,2.08-3.47l4.36-1.1A1.65,1.65,0,0,0,89,113l-69.69-5.28a2.86,2.86,0,0,0-3.07,2.64l-4.2,55.4a2.86,2.86,0,0,0,2.64,3.07l70.05,5.31-5.33-2.06A2.86,2.86,0,0,1,77.8,168.42Z"/><path class="dfeda72d-5ba3-4596-baf5-4af3af96405e" d="M83.93,114.58a2.86,2.86,0,0,0-2.08,3.47l3.91,15.52a2.86,2.86,0,0,0,3.47,2.08l21.24-5.35,1.65-21.72a2.86,2.86,0,0,0-2.64-3.07l-16-1.21a2.86,2.86,0,0,0-3.07,2.64L90,112.81a.3.3,0,0,1-.33.28L89,113a1.65,1.65,0,0,1-.74.44Z"/><path class="c6ca2a08-c031-4060-971c-eaaa3d9f132a" d="M83.93,114.58a2.86,2.86,0,0,0-2.08,3.47l3.91,15.52a2.86,2.86,0,0,0,3.47,2.08l21.24-5.35,1.65-21.72a2.86,2.86,0,0,0-2.64-3.07l-16-1.21a2.86,2.86,0,0,0-3.07,2.64L90,112.81a.3.3,0,0,1-.33.28L89,113a1.65,1.65,0,0,1-.74.44Z"/><path class="73cf6186-9f0d-4289-bfdc-00bf5eb9f94e" d="M85.34,174.53l-.44,5.86a2.86,2.86,0,0,0,2.64,3.07l16,1.21a2.86,2.86,0,0,0,3.07-2.64L108.23,160l-21-8.11a2.86,2.86,0,0,0-3.7,1.64L77.8,168.42a2.86,2.86,0,0,0,1.64,3.7l5.33,2.06.29,0A.3.3,0,0,1,85.34,174.53Z"/><path class="f58048bf-6b74-4944-afab-71346318c5d8" d="M85.34,174.53l-.44,5.86a2.86,2.86,0,0,0,2.64,3.07l16,1.21a2.86,2.86,0,0,0,3.07-2.64L108.23,160l-21-8.11a2.86,2.86,0,0,0-3.7,1.64L77.8,168.42a2.86,2.86,0,0,0,1.64,3.7l5.33,2.06.29,0A.3.3,0,0,1,85.34,174.53Z"/></g></g></svg>