<?xml version="1.0" encoding="UTF-8" standalone="no"?>
<svg width="24px" height="24px" viewBox="0 0 24 24" version="1.1" xmlns="http://www.w3.org/2000/svg" xmlns:xlink="http://www.w3.org/1999/xlink">
    <!-- Generator: sketchtool 39.1 (31720) - http://www.bohemiancoding.com/sketch -->
    <title>C46F9075-0895-4AB6-9713-9086294E5AD4</title>
    <desc>Created with sketchtool.</desc>
    <defs></defs>
    <g id="Page-1" stroke="none" stroke-width="1" fill="none" fill-rule="evenodd">
        <g id="icones" transform="translate(-268.000000, -407.000000)" fill="#C3C6D0">
            <path d="M280,431 C286.627417,431 292,425.627417 292,419 C292,412.372583 286.627417,407 280,407 C273.372583,407 268,412.372583 268,419 C268,425.627417 273.372583,431 280,431 Z M285,416 C284.776,416.5994 284.779,416.707837 285,417 C284.779,420.153195 282.3025,424 278,424 C276.3835,424 275.08975,423.582404 274,423 C274.19275,422.889487 274.3885,422.901023 275,423 C275.74075,422.901023 276.802,422.498039 278,422 C276.56725,421.800508 275.65825,421.070676 275,420 C275.4955,420.097055 275.64925,420.112436 276,420 C276.0325,420.112436 276.25,420.081673 276,420 C275.3305,419.792509 274.48225,418.771976 274,418 C274.48225,417.538414 274.48225,417.527647 274,418 C274.81375,417.706068 275.194,417.819888 276,418 C274.93675,417.379989 274.50175,416.607091 275,416 C274.50175,415.268938 274.62325,414.835192 275,414 C276.04975,415.989541 277.864,416.994694 280,417 C279.868,416.915481 279.84625,416.722449 280,417 C279.84625,415.130508 280.94875,414 282,414 C283.0165,414 283.65625,414.306852 284,415 C284.66575,414.684457 285.193,414.474506 286,414 C285.48475,414.774437 285.094,415.268938 285,416 C285.08425,415.520418 285.55825,415.385065 286,415 C285.67,415.690379 285.25225,416.134892 285,416 Z" id="Combined-Shape"></path>
        </g>
    </g>
</svg>