<svg width="24" height="24" viewBox="0 0 24 24" xmlns="http://www.w3.org/2000/svg"><title>C46F9075-0895-4AB6-9713-9086294E5AD4</title><path d="M12 24c6.627 0 12-5.373 12-12S18.627 0 12 0 0 5.373 0 12s5.373 12 12 12zm5-15c-.224.6-.221.708 0 1-.221 3.153-2.697 7-7 7a8.274 8.274 0 0 1-4-1c.193-.11.389-.099 1 0 .74-.099 1.802-.502 3-1-1.433-.2-2.342-.93-3-2 .495.097.65.112 1 0 .033.112.25.082 0 0-.67-.207-1.518-1.228-2-2 .482-.462.482-.472 0 0 .814-.294 1.194-.18 2 0-1.063-.62-1.498-1.393-1-2-.498-.731-.377-1.165 0-2 1.05 1.99 2.864 2.995 5 3-.132-.085-.154-.278 0 0-.154-1.87.949-3 2-3 1.017 0 1.656.307 2 1 .666-.316 1.193-.525 2-1-.515.774-.906 1.269-1 2 .084-.48.558-.615 1-1-.33.69-.748 1.135-1 1z" fill="#C3C6D0" fill-rule="evenodd"/></svg>